<svg width="886" height="193" viewBox="0 0 886 193" fill="none" xmlns="http://www.w3.org/2000/svg">
<g filter="url(#filter0_d)">
<path d="M73.7 91L78.3 70.9C78.3 68.0333 78.2333 64.9333 78.1 61.6C78.0333 58.2 77.9 54.8 77.7 51.4C77.5 48 77.3 44.7333 77.1 41.6C76.9 38.4 76.7333 35.6 76.6 33.2C76.4667 30.7333 76.3333 28.7667 76.2 27.3C76.0667 25.8333 76 25.1 76 25.1L92.3 18.9V31.1C92.3 32.7667 92.3 34.4667 92.3 36.2C92.3 37.9333 92.2667 39.6333 92.2 41.3C92.2 42.9667 92.2 44.5333 92.2 46C92.2 47.4667 92.2 48.7 92.2 49.7C93.0667 47.4333 94.1 44.6333 95.3 41.3C96.5667 37.9667 97.7333 34.7333 98.8 31.6C100.067 27.9333 101.367 24.0667 102.7 20L118.2 23.5C115.333 29.2333 112.533 34.9333 109.8 40.6C108.667 43.0667 107.467 45.6333 106.2 48.3C104.933 50.9 103.667 53.5333 102.4 56.2C101.133 58.8 99.9 61.3333 98.7 63.8C97.5 66.2667 96.4 68.5667 95.4 70.7C95.0667 72.4333 94.6333 74.3333 94.1 76.4C93.6333 78.4667 93.1667 80.4333 92.7 82.3C92.1 84.5 91.4667 86.7 90.8 88.9L73.7 91ZM145.679 92.6L158.779 21.5L190.379 18.8C189.912 20.2667 189.512 21.7667 189.179 23.3C188.846 24.5667 188.512 25.9 188.179 27.3C187.912 28.6333 187.679 29.8333 187.479 30.9C186.812 30.9667 185.846 31.0333 184.579 31.1C183.379 31.1 182.079 31.1333 180.679 31.2C179.279 31.2 177.846 31.2 176.379 31.2C174.979 31.2 173.746 31.2 172.679 31.2L169.179 49.1C171.246 48.9667 173.179 48.8667 174.979 48.8C176.446 48.7333 177.946 48.7 179.479 48.7C181.012 48.7 182.146 48.6667 182.879 48.6C182.612 50.4667 182.346 52.3 182.079 54.1C181.879 55.9 181.612 57.7333 181.279 59.6C180.612 59.6667 179.512 59.7333 177.979 59.8C176.512 59.8 175.012 59.8333 173.479 59.9C171.746 59.9667 169.846 60.0333 167.779 60.1L164.379 78.5L178.979 76.2L177.979 87.6L145.679 92.6ZM228.461 92.6C229.994 85.2667 231.461 78.0333 232.861 70.9C233.461 67.9 234.061 64.7667 234.661 61.5C235.261 58.2333 235.828 55.0333 236.361 51.9C236.961 48.7 237.461 45.6333 237.861 42.7C238.328 39.7 238.728 36.9667 239.061 34.5C237.528 34.3 235.961 34.2333 234.361 34.3C232.828 34.3667 231.294 34.1667 229.761 33.7C229.828 32.6333 229.861 31.4 229.861 30C229.861 28.6 229.894 27.2 229.961 25.8C230.028 24.2667 230.094 22.6333 230.161 20.9C231.894 21.0333 233.628 21.1333 235.361 21.2C237.094 21.2667 238.828 21.3 240.561 21.3C243.961 21.3 247.228 21.2333 250.361 21.1C253.561 20.9 256.494 20.7 259.161 20.5C261.894 20.2333 264.561 19.9333 267.161 19.6L266.061 25C265.728 26.5333 265.394 28.1 265.061 29.7C264.794 31.3 264.528 32.6667 264.261 33.8C262.794 34.2 261.294 34.5 259.761 34.7C258.294 34.8333 256.828 35.0333 255.361 35.3C254.894 37.5667 254.394 40.1 253.861 42.9C253.328 45.6333 252.794 48.5 252.261 51.5C251.794 54.4333 251.328 57.4333 250.861 60.5C250.394 63.5667 249.928 66.5 249.461 69.3C248.394 75.9 247.394 82.7333 246.461 89.8L228.461 92.6Z" fill="white"/>
<path d="M43.8 178.5C42.1333 178.767 40.3 179.067 38.3 179.4C36.3 179.733 34.5 180.033 32.9 180.3C33.1667 178.1 33.4333 175.933 33.7 173.8C33.9 171.933 34.0667 170.067 34.2 168.2C34.4 166.333 34.5667 164.733 34.7 163.4H26L22 177.8C20.5333 178 18.8 178.233 16.8 178.5C14.8 178.7 12.9333 178.9 11.2 179.1C9.06667 179.367 6.96667 179.633 4.9 179.9C7.56667 171.033 10.2 162.3 12.8 153.7C13.8667 150.1 14.9667 146.333 16.1 142.4C17.3 138.467 18.4667 134.567 19.6 130.7C20.8 126.767 21.9333 123 23 119.4C24.0667 115.8 25 112.5 25.8 109.5C30.3333 109.167 34.9333 108.767 39.6 108.3C44.3333 107.833 48.9333 107.2 53.4 106.4C53.2 108.533 52.9667 111.2 52.7 114.4C52.5 117.533 52.3 120.967 52.1 124.7C51.9 128.433 51.7 132.333 51.5 136.4C51.3 140.467 51.1 144.467 50.9 148.4C50.5667 157.6 50.2 167.367 49.8 177.7C47.8 178.033 45.8 178.3 43.8 178.5ZM28.4 153.4C28.6667 153.4 29.1333 153.4 29.8 153.4C30.5333 153.333 31.2667 153.3 32 153.3C32.8 153.233 33.5333 153.2 34.2 153.2C34.8667 153.133 35.3333 153.067 35.6 153C35.6 152.6 35.6333 151.933 35.7 151C35.8333 150 35.9333 148.9 36 147.7C36.1333 146.433 36.2667 145.067 36.4 143.6C36.5333 142.133 36.6667 140.7 36.8 139.3C37.0667 135.9 37.4 132.233 37.8 128.3L38.4 119.6L36.9 119.7L34.6 128.3L28.4 153.4ZM52.8617 181C54.7284 171.6 56.5284 162.433 58.2617 153.5C58.9284 149.767 59.6284 145.867 60.3617 141.8C61.1617 137.667 61.8951 133.633 62.5617 129.7C63.2284 125.7 63.8284 121.867 64.3617 118.2C64.9617 114.467 65.4284 111.067 65.7617 108C67.8284 107.867 69.8284 107.733 71.7617 107.6C73.4951 107.467 75.2617 107.367 77.0617 107.3C78.8617 107.167 80.4617 107.033 81.8617 106.9C82.7284 112.033 83.4951 116.933 84.1617 121.6C84.4951 123.6 84.8284 125.7 85.1617 127.9C85.5617 130.033 85.9284 132.1 86.2617 134.1C86.5951 136.1 86.9284 138.033 87.2617 139.9C87.5951 141.7 87.9284 143.3 88.2617 144.7C88.5284 143.3 88.8284 141.7 89.1617 139.9C89.4951 138.033 89.8617 136.1 90.2617 134.1C90.6617 132.033 91.0617 129.933 91.4617 127.8C91.9284 125.667 92.3617 123.6 92.7617 121.6C93.7617 116.933 94.7951 112.067 95.8617 107L108.062 105.5C105.795 115.5 103.795 124.967 102.062 133.9C101.262 137.767 100.462 141.667 99.6617 145.6C98.9284 149.533 98.2284 153.333 97.5617 157C96.8951 160.667 96.3284 164.067 95.8617 167.2C95.3951 170.267 95.0284 172.867 94.7617 175C94.5617 175 93.7617 175.167 92.3617 175.5C91.0284 175.767 89.4617 176.1 87.6617 176.5C85.9284 176.9 84.1617 177.333 82.3617 177.8C80.6284 178.2 79.3284 178.533 78.4617 178.8C77.9951 173.4 77.4951 168.267 76.9617 163.4C76.7617 161.333 76.5284 159.2 76.2617 157C75.9951 154.8 75.7284 152.7 75.4617 150.7C75.2617 148.7 75.0284 146.833 74.7617 145.1C74.5617 143.3 74.3617 141.8 74.1617 140.6C73.9617 141.8 73.6951 143.267 73.3617 145C73.0284 146.733 72.6951 148.6 72.3617 150.6C72.0284 152.533 71.6951 154.567 71.3617 156.7C71.0284 158.767 70.6617 160.8 70.2617 162.8C69.3951 167.533 68.4617 172.467 67.4617 177.6L52.8617 181ZM155.574 126.4C155.574 131.867 154.974 137.033 153.774 141.9C152.641 146.7 151.108 151.133 149.174 155.2C147.241 159.2 144.974 162.8 142.374 166C139.841 169.133 137.174 171.833 134.374 174.1C131.574 176.3 128.741 178 125.874 179.2C123.008 180.333 120.274 180.9 117.674 180.9C115.474 180.9 113.474 180.5 111.674 179.7C109.874 178.833 108.308 177.6 106.974 176C105.641 174.333 104.574 172.233 103.774 169.7C103.041 167.1 102.674 164 102.674 160.4C102.674 156.667 103.141 152.733 104.074 148.6C105.008 144.467 106.274 140.367 107.874 136.3C109.474 132.233 111.441 128.367 113.774 124.7C116.108 121.033 118.674 117.8 121.474 115C124.274 112.133 127.274 109.867 130.474 108.2C133.674 106.533 137.008 105.7 140.474 105.7C143.474 105.7 145.941 106.333 147.874 107.6C149.874 108.8 151.408 110.4 152.474 112.4C153.608 114.333 154.408 116.533 154.874 119C155.341 121.467 155.574 123.933 155.574 126.4ZM117.574 157.8C117.574 158.533 117.708 159.3 117.974 160.1C118.241 160.9 118.608 161.6 119.074 162.2C119.541 162.8 120.108 163.333 120.774 163.8C121.508 164.2 122.274 164.4 123.074 164.4C126.074 164.4 128.741 163.367 131.074 161.3C133.408 159.233 135.341 156.7 136.874 153.7C138.408 150.7 139.574 147.5 140.374 144.1C141.241 140.7 141.674 137.6 141.674 134.8C141.674 134 141.608 133.133 141.474 132.2C141.408 131.267 141.208 130.4 140.874 129.6C140.608 128.8 140.141 128.133 139.474 127.6C138.874 127 138.041 126.7 136.974 126.7C134.841 126.7 132.874 127.233 131.074 128.3C129.274 129.367 127.641 130.8 126.174 132.6C124.774 134.333 123.541 136.333 122.474 138.6C121.408 140.8 120.474 143.067 119.674 145.4C118.941 147.667 118.408 149.9 118.074 152.1C117.741 154.3 117.574 156.2 117.574 157.8ZM158.035 180.6C159.568 173.267 161.035 166.033 162.435 158.9C163.035 155.9 163.635 152.767 164.235 149.5C164.835 146.233 165.402 143.033 165.935 139.9C166.535 136.7 167.035 133.633 167.435 130.7C167.902 127.7 168.302 124.967 168.635 122.5C167.102 122.3 165.535 122.233 163.935 122.3C162.402 122.367 160.868 122.167 159.335 121.7C159.402 120.633 159.435 119.4 159.435 118C159.435 116.6 159.468 115.2 159.535 113.8C159.602 112.267 159.668 110.633 159.735 108.9C161.468 109.033 163.202 109.133 164.935 109.2C166.668 109.267 168.402 109.3 170.135 109.3C173.535 109.3 176.802 109.233 179.935 109.1C183.135 108.9 186.068 108.7 188.735 108.5C191.468 108.233 194.135 107.933 196.735 107.6L195.635 113C195.302 114.533 194.968 116.1 194.635 117.7C194.368 119.3 194.102 120.667 193.835 121.8C192.368 122.2 190.868 122.5 189.335 122.7C187.868 122.833 186.402 123.033 184.935 123.3C184.468 125.567 183.968 128.1 183.435 130.9C182.902 133.633 182.368 136.5 181.835 139.5C181.368 142.433 180.902 145.433 180.435 148.5C179.968 151.567 179.502 154.5 179.035 157.3C177.968 163.9 176.968 170.733 176.035 177.8L158.035 180.6ZM188.166 180.7C189.899 171.5 191.599 162.467 193.266 153.6C193.866 149.867 194.532 146 195.266 142C195.999 137.933 196.699 133.933 197.366 130C198.032 126.067 198.666 122.267 199.266 118.6C199.866 114.867 200.399 111.467 200.866 108.4L217.066 107.3C215.932 111.967 214.799 116.833 213.666 121.9C212.599 126.967 211.599 131.9 210.666 136.7L220.566 135.6C221.499 130.867 222.332 126.3 223.066 121.9C223.799 117.433 224.766 112.833 225.966 108.1C227.499 107.833 229.199 107.633 231.066 107.5C232.932 107.3 234.666 107.133 236.266 107C237.866 106.867 239.199 106.767 240.266 106.7C241.399 106.567 241.966 106.5 241.966 106.5C241.032 109.5 240.132 112.8 239.266 116.4C238.466 119.933 237.666 123.633 236.866 127.5C236.066 131.3 235.299 135.167 234.566 139.1C233.832 143.033 233.166 146.767 232.566 150.3C231.099 158.767 229.732 167.433 228.466 176.3L212.866 178.1C213.732 174.1 214.499 170.2 215.166 166.4C215.832 163.2 216.499 159.867 217.166 156.4C217.899 152.933 218.466 149.967 218.866 147.5L209.166 148.4C208.699 150.933 208.132 153.867 207.466 157.2C206.866 160.533 206.299 163.7 205.766 166.7C205.032 170.3 204.299 173.9 203.566 177.5L188.166 180.7ZM234.304 180.6L247.404 109.5L279.004 106.8C278.537 108.267 278.137 109.767 277.804 111.3C277.471 112.567 277.137 113.9 276.804 115.3C276.537 116.633 276.304 117.833 276.104 118.9C275.437 118.967 274.471 119.033 273.204 119.1C272.004 119.1 270.704 119.133 269.304 119.2C267.904 119.2 266.471 119.2 265.004 119.2C263.604 119.2 262.371 119.2 261.304 119.2L257.804 137.1C259.871 136.967 261.804 136.867 263.604 136.8C265.071 136.733 266.571 136.7 268.104 136.7C269.637 136.7 270.771 136.667 271.504 136.6C271.237 138.467 270.971 140.3 270.704 142.1C270.504 143.9 270.237 145.733 269.904 147.6C269.237 147.667 268.137 147.733 266.604 147.8C265.137 147.8 263.637 147.833 262.104 147.9C260.371 147.967 258.471 148.033 256.404 148.1L253.004 166.5L267.604 164.2L266.604 175.6L234.304 180.6ZM269.986 180.6C271.786 171.733 273.519 163.067 275.186 154.6C275.786 151 276.453 147.267 277.186 143.4C277.919 139.467 278.586 135.6 279.186 131.8C279.853 127.933 280.453 124.233 280.986 120.7C281.586 117.1 282.053 113.833 282.386 110.9C286.186 109.7 290.286 108.833 294.686 108.3C299.086 107.7 303.453 107.4 307.786 107.4C310.386 107.4 312.519 107.7 314.186 108.3C315.919 108.9 317.253 109.767 318.186 110.9C319.186 111.967 319.886 113.233 320.286 114.7C320.686 116.167 320.886 117.8 320.886 119.6C320.886 122.267 320.419 124.9 319.486 127.5C318.553 130.033 317.286 132.467 315.686 134.8C314.153 137.067 312.353 139.167 310.286 141.1C308.286 142.967 306.119 144.5 303.786 145.7C304.986 148.367 306.253 151.3 307.586 154.5C308.986 157.633 310.286 160.633 311.486 163.5C312.819 166.833 314.186 170.167 315.586 173.5L300.086 178.9C298.753 174.3 297.553 169.967 296.486 165.9C296.019 164.233 295.553 162.533 295.086 160.8C294.619 159 294.186 157.333 293.786 155.8C293.386 154.2 293.053 152.8 292.786 151.6C292.519 150.4 292.353 149.467 292.286 148.8L290.986 149.2C290.586 151.333 290.086 153.933 289.486 157C288.953 160.067 288.453 163.033 287.986 165.9C287.386 169.3 286.786 172.8 286.186 176.4L269.986 180.6ZM293.486 137.2C294.753 137.067 296.286 136.533 298.086 135.6C299.953 134.667 301.719 133.567 303.386 132.3C305.053 130.967 306.486 129.6 307.686 128.2C308.886 126.8 309.486 125.567 309.486 124.5C309.486 123.767 309.253 123.2 308.786 122.8C308.319 122.333 307.653 122 306.786 121.8C305.986 121.533 305.086 121.367 304.086 121.3C303.086 121.233 302.053 121.2 300.986 121.2C300.253 121.2 299.486 121.233 298.686 121.3C297.953 121.3 297.286 121.3 296.686 121.3L293.486 137.2Z" fill="white"/>
<circle cx="552.5" cy="99" r="75.5" stroke="white" stroke-width="20"/>
<line x1="550.014" y1="130.307" x2="652.014" y2="39.307" stroke="white" stroke-width="30"/>
<line x1="516.607" y1="76.8934" x2="570.607" y2="130.893" stroke="white" stroke-width="30"/>
<path d="M334.25 184.75C339.25 162.25 344 140.25 348.5 118.75C350.333 109.75 352.25 100.25 354.25 90.25C356.25 80.25 358.167 70.4167 360 60.75C361.833 51.0833 363.583 41.75 365.25 32.75C366.917 23.75 368.333 15.5 369.5 8C374.333 6.5 379.083 5.25 383.75 4.25C388.417 3.08333 393.167 2.08333 398 1.25C403 0.416666 407.667 0 412 0C419.5 0 425.75 1.25 430.75 3.75C435.917 6.25 440.083 9.66667 443.25 14C446.417 18.1667 448.667 23.0833 450 28.75C451.333 34.4167 452 40.5 452 47C452 56.3333 450.25 65.3333 446.75 74C443.417 82.6667 438.833 90.4167 433 97.25C427.333 103.917 420.75 109.25 413.25 113.25C405.917 117.25 398.25 119.25 390.25 119.25H387.5C386.167 124.917 384.917 131.083 383.75 137.75C382.583 144.417 381.583 150.583 380.75 156.25C379.583 162.917 378.5 169.583 377.5 176.25L334.25 184.75ZM404 30.25C402.167 41.25 400.333 51.6667 398.5 61.5C396.667 71.3333 394.667 81.8333 392.5 93C395.167 92.3333 397.917 90.8333 400.75 88.5C403.75 86 406.5 82.8333 409 79C411.5 75 413.5 70.4167 415 65.25C416.5 60.0833 417.25 54.6667 417.25 49C417.25 42.8333 415.833 38.1667 413 35C410.333 31.8333 407.333 30.25 404 30.25Z" fill="white"/>
<path d="M739.518 176.5C734.351 176.5 728.851 176.667 723.018 177C717.351 177.333 711.601 177.833 705.768 178.5C699.934 179.167 694.184 180.083 688.518 181.25C683.018 182.25 678.018 183.5 673.518 185C674.518 177.5 675.684 169.167 677.018 160C678.351 150.833 679.851 141.333 681.518 131.5C683.351 121.667 685.101 111.75 686.768 101.75C688.601 91.75 690.434 82.1667 692.268 73C696.434 51.1667 700.851 28.9167 705.518 6.24999L749.268 0.499994C744.768 19.8333 740.434 38.6667 736.268 57C734.434 64.8333 732.601 73 730.768 81.5C728.934 89.8333 727.184 98 725.518 106C723.851 114 722.351 121.75 721.018 129.25C719.684 136.75 718.601 143.417 717.768 149.25C721.934 148.917 726.351 148.75 731.018 148.75C735.851 148.583 740.101 148.5 743.768 148.5C743.934 151.667 744.184 154.833 744.518 158C744.851 161 745.184 163.75 745.518 166.25C746.018 168.75 746.351 171 746.518 173C746.851 174.833 747.101 176.083 747.268 176.75C745.934 176.75 744.601 176.75 743.268 176.75C742.101 176.583 740.851 176.5 739.518 176.5Z" fill="white"/>
<path d="M872.242 176.5C867.076 176.5 861.576 176.667 855.742 177C850.076 177.333 844.326 177.833 838.492 178.5C832.659 179.167 826.909 180.083 821.242 181.25C815.742 182.25 810.742 183.5 806.242 185C807.242 177.5 808.409 169.167 809.742 160C811.076 150.833 812.576 141.333 814.242 131.5C816.076 121.667 817.826 111.75 819.492 101.75C821.326 91.75 823.159 82.1667 824.992 73C829.159 51.1667 833.576 28.9167 838.242 6.24999L881.992 0.499994C877.492 19.8333 873.159 38.6667 868.992 57C867.159 64.8333 865.326 73 863.492 81.5C861.659 89.8333 859.909 98 858.242 106C856.576 114 855.076 121.75 853.742 129.25C852.409 136.75 851.326 143.417 850.492 149.25C854.659 148.917 859.076 148.75 863.742 148.75C868.576 148.583 872.826 148.5 876.492 148.5C876.659 151.667 876.909 154.833 877.242 158C877.576 161 877.909 163.75 878.242 166.25C878.742 168.75 879.076 171 879.242 173C879.576 174.833 879.826 176.083 879.992 176.75C878.659 176.75 877.326 176.75 875.992 176.75C874.826 176.583 873.576 176.5 872.242 176.5Z" fill="white"/>
</g>
<defs>
<filter id="filter0_d" x="0.900024" y="0" width="885.092" height="193" filterUnits="userSpaceOnUse" color-interpolation-filters="sRGB">
<feFlood flood-opacity="0" result="BackgroundImageFix"/>
<feColorMatrix in="SourceAlpha" type="matrix" values="0 0 0 0 0 0 0 0 0 0 0 0 0 0 0 0 0 0 127 0"/>
<feOffset dy="4"/>
<feGaussianBlur stdDeviation="2"/>
<feColorMatrix type="matrix" values="0 0 0 0 0 0 0 0 0 0 0 0 0 0 0 0 0 0 0.25 0"/>
<feBlend mode="normal" in2="BackgroundImageFix" result="effect1_dropShadow"/>
<feBlend mode="normal" in="SourceGraphic" in2="effect1_dropShadow" result="shape"/>
</filter>
</defs>
</svg>
